<svg width="3840" height="2160" viewBox="0 0 3840 2160" fill="none" xmlns="http://www.w3.org/2000/svg">
<g clip-path="url(#clip0_2069_78)">
<rect width="3840" height="2160" fill="#3D64FF" style="fill:#3D64FF;fill:color(display-p3 0.2392 0.3922 1.0000);fill-opacity:1;"/>
<path d="M-1268 -841L-237.611 537.067H1919.81L-1268 -841Z" fill="white" style="fill:white;fill-opacity:1;"/>
<path d="M1140.46 -493.323L-237.611 537.066L-237.611 2694.49L1140.46 -493.323Z" fill="white" fill-opacity="0.65" style="fill:white;fill-opacity:0.65;"/>
<path d="M1212.8 1154.02C1197.62 1154.02 1183.46 1151.57 1170.34 1146.68C1157.47 1141.79 1146.28 1134.98 1136.76 1126.23C1127.49 1117.22 1120.16 1106.67 1114.76 1094.57C1109.35 1082.48 1106.65 1069.23 1106.65 1054.82V1047.1C1106.65 1032.43 1109.22 1018.79 1114.37 1006.18C1119.77 993.571 1127.11 982.634 1136.37 973.37C1145.64 964.106 1156.57 956.901 1169.18 951.754C1181.79 946.35 1195.3 943.648 1209.71 943.648H1216.27C1229.66 943.648 1242.01 945.449 1253.33 949.052C1264.91 952.397 1274.82 957.415 1283.05 964.106C1291.29 970.539 1297.72 978.259 1302.35 987.266C1306.98 996.015 1309.3 1005.79 1309.3 1016.6C1309.3 1024.84 1307.76 1032.17 1304.67 1038.6C1301.84 1044.78 1297.21 1050.06 1290.77 1054.43C1284.6 1058.55 1276.75 1061.76 1267.23 1064.08C1257.96 1066.4 1247.03 1067.55 1234.42 1067.55H1173.04C1174.33 1073.22 1176.39 1078.23 1179.22 1082.61C1182.31 1086.98 1185.78 1090.59 1189.64 1093.42C1193.76 1096.25 1198.26 1098.43 1203.15 1099.98C1208.04 1101.26 1213.19 1101.91 1218.59 1101.91H1224.38C1233.13 1101.91 1241.88 1099.85 1250.63 1095.73C1259.63 1091.61 1268 1086.47 1275.72 1080.29L1309.3 1119.66C1304.93 1124.3 1299.39 1128.67 1292.7 1132.79C1286.01 1136.91 1278.68 1140.51 1270.7 1143.6C1262.72 1146.68 1254.36 1149.13 1245.61 1150.93C1237.12 1152.99 1228.63 1154.02 1220.13 1154.02H1212.8ZM1172.27 1029.73H1223.61C1231.07 1029.73 1236.47 1028.18 1239.82 1025.09C1243.42 1021.75 1245.22 1017.76 1245.22 1013.13C1245.22 1010.04 1244.58 1007.08 1243.29 1004.25C1242.01 1001.42 1240.08 998.975 1237.5 996.916C1234.93 994.857 1231.59 993.185 1227.47 991.898C1223.61 990.611 1219.1 989.968 1213.96 989.968H1213.19C1207.78 989.968 1202.76 990.997 1198.13 993.056C1193.5 995.115 1189.38 997.945 1185.78 1001.55C1182.18 1004.89 1179.22 1009.01 1176.9 1013.9C1174.59 1018.79 1173.04 1024.06 1172.27 1029.73ZM1406.22 1153.63C1385.11 1153.63 1368.65 1146.94 1356.81 1133.56C1344.97 1120.18 1339.05 1101.26 1339.05 1076.82V948.28H1406.22V1061.76C1406.22 1074.37 1408.4 1083.77 1412.78 1089.94C1417.41 1095.86 1424.49 1098.82 1434.01 1098.82H1434.78C1439.93 1098.82 1444.56 1097.79 1448.68 1095.73C1453.05 1093.67 1456.65 1090.71 1459.48 1086.85C1462.57 1082.74 1464.89 1077.98 1466.43 1072.57C1468.23 1066.91 1469.13 1060.86 1469.13 1054.43V948.28H1536.3V1149H1483.03C1481.74 1145.14 1480.46 1140.38 1479.17 1134.72C1478.14 1128.8 1477.5 1123.52 1477.24 1118.89C1468.75 1129.44 1458.45 1137.93 1446.36 1144.37C1434.52 1150.54 1421.53 1153.63 1407.37 1153.63H1406.22ZM1667.26 1153.25C1652.34 1153.25 1638.83 1150.8 1626.73 1145.91C1614.64 1140.77 1604.21 1133.82 1595.46 1125.07C1586.72 1116.06 1579.77 1105.51 1574.62 1093.42C1569.73 1081.06 1567.29 1067.81 1567.29 1053.66V1042.46C1567.29 1028.31 1569.73 1015.32 1574.62 1003.48C1579.77 991.383 1586.72 980.961 1595.46 972.212C1604.47 963.463 1614.89 956.643 1626.73 951.754C1638.83 946.607 1651.69 944.034 1665.33 944.034H1668.8C1686.56 944.034 1702.64 947.637 1717.05 954.842C1731.47 961.79 1743.82 972.341 1754.11 986.494L1707.79 1020.46C1701.87 1010.43 1696.21 1003.48 1690.81 999.618C1685.4 995.501 1678.97 993.442 1671.51 993.442H1669.58C1664.43 993.442 1659.8 994.6 1655.68 996.916C1651.56 998.975 1648.09 1002.19 1645.26 1006.57C1642.69 1010.94 1640.63 1016.34 1639.08 1022.78C1637.54 1029.21 1636.77 1036.8 1636.77 1045.55V1051.73C1636.77 1059.71 1637.54 1066.91 1639.08 1073.34C1640.88 1079.78 1643.2 1085.18 1646.03 1089.56C1649.12 1093.67 1652.72 1096.89 1656.84 1099.21C1660.96 1101.52 1665.72 1102.68 1671.12 1102.68H1674.21C1681.41 1102.68 1687.85 1100.49 1693.51 1096.12C1699.43 1091.49 1705.09 1084.28 1710.49 1074.5L1756.04 1111.56C1745.49 1125.45 1733.27 1135.88 1719.37 1142.82C1705.47 1149.77 1689.26 1153.25 1670.73 1153.25H1667.26ZM1836.5 1152.09C1816.43 1152.09 1801.63 1146.43 1792.11 1135.1C1782.59 1123.78 1777.83 1106.28 1777.83 1082.61V871.08H1844.99V1069.87C1844.99 1080.16 1846.28 1087.24 1848.85 1091.1C1851.68 1094.96 1856.7 1096.89 1863.9 1096.89C1867.51 1096.89 1871.11 1096.63 1874.71 1096.12C1878.57 1095.6 1881.53 1095.09 1883.59 1094.57V1144.37C1877.41 1146.94 1870.08 1148.87 1861.59 1150.16C1853.1 1151.44 1844.73 1152.09 1836.5 1152.09ZM1910.59 1149V948.28H1977.75V1149H1910.59ZM1944.55 926.278C1933.23 926.278 1924.1 923.319 1917.15 917.4C1910.46 911.481 1907.11 903.633 1907.11 893.854C1907.11 883.818 1910.46 875.841 1917.15 869.922C1924.1 863.746 1933.23 860.658 1944.55 860.658C1956.13 860.658 1965.53 863.746 1972.73 869.922C1979.94 875.841 1983.54 883.818 1983.54 893.854C1983.54 903.633 1979.94 911.481 1972.73 917.4C1965.78 923.319 1956.39 926.278 1944.55 926.278ZM2086.28 1153.63C2074.18 1153.63 2063.37 1151.57 2053.85 1147.46C2044.59 1143.08 2036.61 1137.03 2029.92 1129.31C2023.49 1121.34 2018.6 1111.56 2015.25 1099.98C2011.91 1088.4 2010.23 1075.27 2010.23 1060.61V1052.11C2010.23 1036.16 2012.81 1021.49 2017.95 1008.11C2023.1 994.729 2030.31 983.277 2039.57 973.756C2049.09 964.235 2060.41 956.901 2073.54 951.754C2086.92 946.35 2101.59 943.648 2117.54 943.648H2121.4C2125.78 943.648 2130.02 943.905 2134.14 944.42C2138.26 944.935 2142.5 945.707 2146.88 946.736V871.08H2214.04V1149H2160.77C2159.23 1144.88 2157.81 1139.61 2156.53 1133.17C2155.5 1126.74 2154.86 1121.34 2154.6 1116.96C2151.51 1122.62 2147.65 1127.77 2143.02 1132.4C2138.64 1137.03 2133.75 1140.89 2128.35 1143.98C2122.95 1147.07 2117.03 1149.39 2110.59 1150.93C2104.16 1152.73 2097.34 1153.63 2090.14 1153.63H2086.28ZM2110.59 1102.29H2112.91C2117.8 1102.29 2122.3 1101.14 2126.42 1098.82C2130.79 1096.5 2134.53 1093.42 2137.61 1089.56C2140.7 1085.7 2143.15 1081.19 2144.95 1076.05C2147.01 1070.9 2148.04 1065.24 2148.04 1059.06V997.302C2145.46 995.501 2141.73 994.085 2136.84 993.056C2131.95 992.027 2127.19 991.512 2122.56 991.512H2122.17C2116 991.512 2110.21 992.927 2104.8 995.758C2099.4 998.331 2094.77 1002.19 2090.91 1007.34C2087.31 1012.48 2084.35 1018.66 2082.03 1025.87C2079.97 1033.07 2078.94 1041.31 2078.94 1050.57V1054.43C2078.94 1061.89 2079.59 1068.58 2080.87 1074.5C2082.42 1080.16 2084.47 1085.18 2087.05 1089.56C2089.88 1093.67 2093.22 1096.89 2097.08 1099.21C2101.2 1101.26 2105.7 1102.29 2110.59 1102.29ZM2254.3 1017.37V1010.43C2254.3 989.839 2257.39 971.311 2263.57 954.842C2269.74 938.373 2278.24 924.348 2289.04 912.768C2300.11 900.931 2313.1 891.795 2328.03 885.362C2343.21 878.929 2359.94 875.712 2378.21 875.712H2380.91C2398.92 875.712 2415.52 878.929 2430.71 885.362C2445.89 891.795 2458.88 900.931 2469.69 912.768C2480.76 924.348 2489.25 938.373 2495.17 954.842C2501.34 971.311 2504.43 989.839 2504.43 1010.43V1017.37C2504.43 1037.7 2501.34 1056.23 2495.17 1072.96C2489.25 1089.43 2480.76 1103.58 2469.69 1115.42C2458.88 1127 2445.89 1136 2430.71 1142.44C2415.78 1148.87 2399.18 1152.09 2380.91 1152.09H2378.21C2360.2 1152.09 2343.6 1148.87 2328.42 1142.44C2313.23 1136 2300.11 1127 2289.04 1115.42C2278.24 1103.58 2269.74 1089.43 2263.57 1072.96C2257.39 1056.23 2254.3 1037.7 2254.3 1017.37ZM2278.62 1017.76C2278.62 1034.49 2281.07 1049.8 2285.96 1063.69C2291.1 1077.33 2298.05 1089.04 2306.8 1098.82C2315.81 1108.34 2326.36 1115.8 2338.45 1121.21C2350.55 1126.61 2363.93 1129.31 2378.6 1129.31H2380.14C2394.81 1129.31 2408.19 1126.61 2420.28 1121.21C2432.64 1115.8 2443.19 1108.34 2451.94 1098.82C2460.94 1089.04 2467.89 1077.33 2472.78 1063.69C2477.93 1049.8 2480.5 1034.49 2480.5 1017.76V1010.04C2480.5 993.056 2477.93 977.745 2472.78 964.106C2467.89 950.467 2460.94 938.887 2451.94 929.366C2443.19 919.587 2432.76 911.996 2420.67 906.592C2408.57 901.188 2395.19 898.486 2380.53 898.486H2378.21C2363.8 898.486 2350.42 901.188 2338.07 906.592C2325.97 911.996 2315.55 919.587 2306.8 929.366C2298.05 938.887 2291.1 950.467 2285.96 964.106C2281.07 977.745 2278.62 993.056 2278.62 1010.04V1017.76ZM2636.49 1152.47C2627.74 1152.47 2618.86 1151.57 2609.85 1149.77C2600.85 1147.97 2592.1 1145.4 2583.61 1142.05C2575.37 1138.71 2567.52 1134.59 2560.06 1129.7C2552.6 1124.81 2545.91 1119.54 2539.99 1113.87L2554.66 1096.12C2559.8 1101.52 2565.46 1106.28 2571.64 1110.4C2578.07 1114.52 2584.89 1118.12 2592.1 1121.21C2599.3 1124.04 2606.77 1126.23 2614.49 1127.77C2622.21 1129.31 2629.8 1130.09 2637.26 1130.09C2647.3 1130.09 2656.17 1128.93 2663.89 1126.61C2671.61 1124.04 2678.18 1120.56 2683.58 1116.19C2689.24 1111.82 2693.49 1106.41 2696.32 1099.98C2699.41 1093.54 2700.95 1086.21 2700.95 1077.98C2700.95 1067.43 2698.38 1058.8 2693.23 1052.11C2688.34 1045.42 2681.78 1039.89 2673.54 1035.52C2665.31 1030.88 2656.05 1027.02 2645.75 1023.94C2635.46 1020.59 2625.04 1017.37 2614.49 1014.29C2605.48 1011.2 2596.86 1007.98 2588.62 1004.64C2580.65 1001.03 2573.57 996.659 2567.39 991.512C2561.48 986.108 2556.59 979.675 2552.73 972.212C2549.12 964.492 2547.32 955.357 2547.32 944.806C2547.32 934.255 2549.25 924.734 2553.11 916.242C2556.97 907.493 2562.51 900.159 2569.71 894.24C2577.17 888.064 2585.92 883.303 2595.96 879.958C2606.25 876.613 2617.7 874.94 2630.31 874.94C2646.52 874.94 2662.09 877.899 2677.02 883.818C2691.94 889.737 2704.42 897.843 2714.46 908.136L2700.18 925.892C2691.43 916.371 2680.75 909.294 2668.14 904.662C2655.53 900.03 2642.54 897.714 2629.15 897.714C2620.41 897.714 2612.43 898.872 2605.22 901.188C2598.02 903.504 2591.84 906.592 2586.69 910.452C2581.55 914.312 2577.56 919.073 2574.73 924.734C2572.16 930.138 2570.87 936.314 2570.87 943.262C2570.87 951.497 2572.67 958.573 2576.27 964.492C2580.13 970.153 2585.15 975.043 2591.33 979.16C2597.76 983.277 2605.09 986.751 2613.33 989.582C2621.82 992.413 2630.7 995.243 2639.96 998.074C2650.26 1000.9 2660.42 1004.25 2670.46 1008.11C2680.75 1011.71 2689.89 1016.47 2697.86 1022.39C2706.1 1028.05 2712.66 1035.26 2717.55 1044.01C2722.44 1052.76 2724.88 1063.57 2724.88 1076.43C2724.88 1088.01 2722.82 1098.56 2718.71 1108.08C2714.59 1117.35 2708.67 1125.33 2700.95 1132.02C2693.23 1138.45 2683.97 1143.47 2673.16 1147.07C2662.35 1150.67 2650.13 1152.47 2636.49 1152.47Z" fill="white" style="fill:white;fill-opacity:1;"/>
<path d="M1488.76 1282.25C1484.79 1282.25 1480.98 1281.58 1477.33 1280.23C1473.75 1278.89 1470.74 1277.06 1468.31 1274.76L1471.48 1270.73C1472.76 1271.75 1474.07 1272.65 1475.41 1273.42C1476.76 1274.18 1478.16 1274.86 1479.64 1275.43C1481.11 1275.94 1482.61 1276.36 1484.15 1276.68C1485.68 1276.94 1487.25 1277.06 1488.85 1277.06C1490.77 1277.06 1492.5 1276.87 1494.04 1276.49C1495.57 1276.04 1496.88 1275.43 1497.97 1274.66C1499.06 1273.9 1499.86 1272.97 1500.37 1271.88C1500.95 1270.79 1501.24 1269.54 1501.24 1268.14C1501.24 1266.47 1500.85 1265.13 1500.08 1264.1C1499.32 1263.08 1498.26 1262.22 1496.92 1261.51C1495.64 1260.74 1494.16 1260.17 1492.5 1259.78C1490.84 1259.34 1489.11 1258.89 1487.32 1258.44C1485.27 1257.99 1483.22 1257.51 1481.17 1257C1479.12 1256.42 1477.27 1255.66 1475.6 1254.7C1474 1253.74 1472.69 1252.46 1471.67 1250.86C1470.71 1249.26 1470.23 1247.24 1470.23 1244.81C1470.23 1242.76 1470.61 1240.87 1471.38 1239.14C1472.21 1237.42 1473.33 1235.98 1474.74 1234.82C1476.21 1233.61 1477.97 1232.68 1480.02 1232.04C1482.07 1231.34 1484.34 1230.98 1486.84 1230.98C1490.1 1230.98 1493.3 1231.53 1496.44 1232.62C1499.57 1233.7 1502.36 1235.11 1504.79 1236.84L1502.1 1241.26C1499.67 1239.66 1497.14 1238.44 1494.52 1237.61C1491.96 1236.71 1489.33 1236.26 1486.64 1236.26C1484.98 1236.26 1483.48 1236.46 1482.13 1236.84C1480.79 1237.22 1479.64 1237.77 1478.68 1238.47C1477.78 1239.18 1477.08 1240.01 1476.56 1240.97C1476.05 1241.93 1475.8 1243.05 1475.8 1244.33C1475.8 1245.8 1476.15 1247.02 1476.85 1247.98C1477.62 1248.87 1478.61 1249.64 1479.83 1250.28C1481.04 1250.92 1482.42 1251.46 1483.96 1251.91C1485.56 1252.36 1487.22 1252.78 1488.95 1253.16C1491.06 1253.61 1493.17 1254.15 1495.28 1254.79C1497.46 1255.37 1499.38 1256.2 1501.04 1257.29C1502.77 1258.31 1504.18 1259.66 1505.27 1261.32C1506.36 1262.92 1506.9 1265 1506.9 1267.56C1506.9 1269.8 1506.45 1271.85 1505.56 1273.7C1504.72 1275.5 1503.51 1277.03 1501.91 1278.31C1500.31 1279.53 1498.39 1280.49 1496.15 1281.19C1493.97 1281.9 1491.51 1282.25 1488.76 1282.25ZM1523.45 1300.39C1522.43 1300.39 1521.28 1300.26 1520 1300.01C1518.72 1299.75 1517.56 1299.27 1516.54 1298.57V1293.58C1517.56 1294.15 1518.59 1294.57 1519.61 1294.82C1520.64 1295.08 1521.63 1295.21 1522.59 1295.21C1525.15 1295.21 1527.42 1294.25 1529.4 1292.33C1531.45 1290.41 1533.21 1287.59 1534.68 1283.88L1512.6 1231.66H1518.75L1537.08 1275.91H1537.76L1553.31 1231.66H1559.07L1540.44 1284.26C1539.55 1286.76 1538.56 1289 1537.47 1290.98C1536.38 1292.97 1535.13 1294.63 1533.72 1295.98C1532.32 1297.38 1530.78 1298.47 1529.12 1299.24C1527.45 1300.01 1525.56 1300.39 1523.45 1300.39ZM1584.57 1282.25C1580.6 1282.25 1576.79 1281.58 1573.15 1280.23C1569.56 1278.89 1566.55 1277.06 1564.12 1274.76L1567.29 1270.73C1568.57 1271.75 1569.88 1272.65 1571.23 1273.42C1572.57 1274.18 1573.98 1274.86 1575.45 1275.43C1576.92 1275.94 1578.43 1276.36 1579.96 1276.68C1581.5 1276.94 1583.07 1277.06 1584.67 1277.06C1586.59 1277.06 1588.31 1276.87 1589.85 1276.49C1591.39 1276.04 1592.7 1275.43 1593.79 1274.66C1594.87 1273.9 1595.67 1272.97 1596.19 1271.88C1596.76 1270.79 1597.05 1269.54 1597.05 1268.14C1597.05 1266.47 1596.67 1265.13 1595.9 1264.1C1595.13 1263.08 1594.07 1262.22 1592.73 1261.51C1591.45 1260.74 1589.98 1260.17 1588.31 1259.78C1586.65 1259.34 1584.92 1258.89 1583.13 1258.44C1581.08 1257.99 1579.03 1257.51 1576.99 1257C1574.94 1256.42 1573.08 1255.66 1571.42 1254.7C1569.82 1253.74 1568.51 1252.46 1567.48 1250.86C1566.52 1249.26 1566.04 1247.24 1566.04 1244.81C1566.04 1242.76 1566.43 1240.87 1567.19 1239.14C1568.03 1237.42 1569.15 1235.98 1570.55 1234.82C1572.03 1233.61 1573.79 1232.68 1575.83 1232.04C1577.88 1231.34 1580.15 1230.98 1582.65 1230.98C1585.91 1230.98 1589.11 1231.53 1592.25 1232.62C1595.39 1233.7 1598.17 1235.11 1600.6 1236.84L1597.91 1241.26C1595.48 1239.66 1592.95 1238.44 1590.33 1237.61C1587.77 1236.71 1585.15 1236.26 1582.46 1236.26C1580.79 1236.26 1579.29 1236.46 1577.95 1236.84C1576.6 1237.22 1575.45 1237.77 1574.49 1238.47C1573.59 1239.18 1572.89 1240.01 1572.38 1240.97C1571.87 1241.93 1571.61 1243.05 1571.61 1244.33C1571.61 1245.8 1571.96 1247.02 1572.67 1247.98C1573.43 1248.87 1574.43 1249.64 1575.64 1250.28C1576.86 1250.92 1578.23 1251.46 1579.77 1251.91C1581.37 1252.36 1583.03 1252.78 1584.76 1253.16C1586.87 1253.61 1588.99 1254.15 1591.1 1254.79C1593.27 1255.37 1595.19 1256.2 1596.86 1257.29C1598.59 1258.31 1599.99 1259.66 1601.08 1261.32C1602.17 1262.92 1602.71 1265 1602.71 1267.56C1602.71 1269.8 1602.27 1271.85 1601.37 1273.7C1600.54 1275.5 1599.32 1277.03 1597.72 1278.31C1596.12 1279.53 1594.2 1280.49 1591.96 1281.19C1589.79 1281.9 1587.32 1282.25 1584.57 1282.25ZM1628.58 1281.86C1626.53 1281.86 1624.7 1281.58 1623.1 1281C1621.5 1280.36 1620.16 1279.46 1619.07 1278.31C1617.98 1277.1 1617.15 1275.66 1616.58 1273.99C1616.06 1272.26 1615.84 1270.28 1615.9 1268.04C1615.9 1266.06 1615.94 1263.69 1616 1260.94C1616.13 1258.18 1616.26 1255.34 1616.38 1252.39C1616.58 1249.45 1616.77 1246.6 1616.96 1243.85C1617.22 1241.1 1617.44 1238.73 1617.63 1236.74H1609.47V1233C1610.43 1232.68 1611.62 1232.39 1613.02 1232.14C1614.43 1231.82 1615.71 1231.66 1616.86 1231.66V1220.14L1622.24 1219.37L1622.14 1231.66H1636.74V1236.74H1622.53C1622.4 1238.41 1622.27 1240.49 1622.14 1242.98C1622.02 1245.42 1621.89 1248.01 1621.76 1250.76C1621.63 1253.51 1621.5 1256.3 1621.38 1259.11C1621.31 1261.86 1621.28 1264.42 1621.28 1266.79C1621.22 1270.31 1621.92 1272.84 1623.39 1274.38C1624.86 1275.91 1626.88 1276.68 1629.44 1276.68C1630.02 1276.68 1630.72 1276.68 1631.55 1276.68C1632.38 1276.62 1633.22 1276.52 1634.05 1276.39C1634.88 1276.26 1635.68 1276.14 1636.45 1276.01C1637.22 1275.82 1637.89 1275.62 1638.46 1275.43V1280.33C1637.89 1280.58 1637.18 1280.81 1636.35 1281C1635.58 1281.19 1634.75 1281.35 1633.86 1281.48C1632.96 1281.61 1632.03 1281.7 1631.07 1281.77C1630.18 1281.83 1629.34 1281.86 1628.58 1281.86ZM1669.87 1282.15C1666.42 1282.15 1663.28 1281.58 1660.47 1280.42C1657.71 1279.21 1655.31 1277.54 1653.27 1275.43C1651.28 1273.32 1649.71 1270.79 1648.56 1267.85C1647.41 1264.9 1646.83 1261.64 1646.83 1258.06V1256.33C1646.83 1252.68 1647.41 1249.32 1648.56 1246.25C1649.78 1243.18 1651.41 1240.52 1653.46 1238.28C1655.57 1236.04 1658.1 1234.28 1661.04 1233C1663.99 1231.72 1667.22 1231.08 1670.74 1231.08H1671.51C1674.26 1231.08 1676.79 1231.5 1679.09 1232.33C1681.46 1233.1 1683.47 1234.18 1685.14 1235.59C1686.87 1237 1688.18 1238.7 1689.07 1240.68C1690.03 1242.66 1690.51 1244.78 1690.51 1247.02C1690.51 1249.06 1690.1 1250.86 1689.27 1252.39C1688.5 1253.93 1687.25 1255.18 1685.52 1256.14C1683.79 1257.1 1681.59 1257.83 1678.9 1258.34C1676.27 1258.79 1673.11 1259.02 1669.39 1259.02H1652.59V1259.21C1652.72 1261.83 1653.23 1264.23 1654.13 1266.41C1655.03 1268.58 1656.24 1270.44 1657.78 1271.98C1659.31 1273.51 1661.14 1274.7 1663.25 1275.53C1665.36 1276.36 1667.67 1276.78 1670.16 1276.78H1670.93C1674.19 1276.78 1677.07 1276.1 1679.57 1274.76C1682.13 1273.42 1684.37 1271.43 1686.29 1268.81L1690.61 1271.69C1689.33 1273.42 1687.95 1274.95 1686.48 1276.3C1685.07 1277.58 1683.54 1278.66 1681.87 1279.56C1680.21 1280.46 1678.42 1281.13 1676.5 1281.58C1674.64 1281.96 1672.69 1282.15 1670.64 1282.15H1669.87ZM1652.59 1253.93H1669.78C1675.22 1253.93 1679.09 1253.35 1681.39 1252.2C1683.7 1250.98 1684.85 1249.1 1684.85 1246.54C1684.85 1245.06 1684.5 1243.72 1683.79 1242.5C1683.15 1241.29 1682.23 1240.23 1681.01 1239.34C1679.79 1238.44 1678.35 1237.74 1676.69 1237.22C1675.09 1236.71 1673.27 1236.46 1671.22 1236.46H1670.64C1668.08 1236.46 1665.71 1236.87 1663.54 1237.7C1661.43 1238.54 1659.6 1239.72 1658.07 1241.26C1656.53 1242.79 1655.28 1244.65 1654.32 1246.82C1653.43 1248.94 1652.85 1251.3 1652.59 1253.93ZM1703.17 1281.58V1231.66H1707.39C1707.58 1232.42 1707.77 1233.48 1707.97 1234.82C1708.16 1236.1 1708.32 1237.48 1708.45 1238.95C1710.17 1236.46 1712.35 1234.5 1714.97 1233.1C1717.6 1231.69 1720.61 1230.98 1724 1230.98H1724.57C1728.29 1230.98 1731.29 1231.82 1733.6 1233.48C1735.97 1235.08 1737.66 1237.48 1738.69 1240.68C1740.35 1237.61 1742.62 1235.24 1745.5 1233.58C1748.38 1231.85 1751.71 1230.98 1755.49 1230.98H1756.06C1761.12 1230.98 1764.93 1232.52 1767.49 1235.59C1770.05 1238.6 1771.33 1243.02 1771.33 1248.84V1281.58H1765.95V1249.61C1765.95 1247.5 1765.73 1245.61 1765.28 1243.94C1764.83 1242.28 1764.13 1240.9 1763.17 1239.82C1762.27 1238.66 1761.15 1237.8 1759.81 1237.22C1758.46 1236.65 1756.89 1236.36 1755.1 1236.36H1754.43C1752.25 1236.36 1750.27 1236.71 1748.48 1237.42C1746.69 1238.12 1745.15 1239.14 1743.87 1240.49C1742.65 1241.77 1741.69 1243.37 1740.99 1245.29C1740.29 1247.21 1739.93 1249.38 1739.93 1251.82V1281.58H1734.56V1249.61C1734.56 1247.5 1734.33 1245.61 1733.89 1243.94C1733.44 1242.28 1732.73 1240.9 1731.77 1239.82C1730.88 1238.66 1729.76 1237.8 1728.41 1237.22C1727.07 1236.65 1725.47 1236.36 1723.61 1236.36H1722.94C1720.77 1236.36 1718.78 1236.71 1716.99 1237.42C1715.26 1238.12 1713.76 1239.14 1712.48 1240.49C1711.2 1241.77 1710.21 1243.37 1709.5 1245.29C1708.86 1247.21 1708.54 1249.38 1708.54 1251.82V1281.58H1703.17ZM1781.79 1293.29L1787.07 1272.74H1794.08L1786.4 1293.29H1781.79ZM1830.69 1281.58V1231.66H1843.93C1844.25 1232.68 1844.54 1233.86 1844.8 1235.21C1845.12 1236.55 1845.31 1237.74 1845.37 1238.76C1847.23 1236.58 1849.44 1234.86 1852 1233.58C1854.56 1232.3 1857.41 1231.66 1860.54 1231.66H1861.98V1247.11C1861.41 1246.92 1860.7 1246.79 1859.87 1246.73C1859.1 1246.6 1858.33 1246.54 1857.57 1246.54C1856.03 1246.54 1854.62 1246.76 1853.34 1247.21C1852.06 1247.59 1850.97 1248.17 1850.08 1248.94C1849.25 1249.7 1848.57 1250.66 1848.06 1251.82C1847.61 1252.9 1847.39 1254.12 1847.39 1255.46V1281.58H1830.69ZM1892.08 1282.82C1888.31 1282.82 1884.79 1282.22 1881.52 1281C1878.32 1279.78 1875.54 1278.09 1873.17 1275.91C1870.87 1273.67 1869.04 1271.05 1867.7 1268.04C1866.35 1265.03 1865.68 1261.74 1865.68 1258.15V1256.23C1865.68 1252.58 1866.32 1249.19 1867.6 1246.06C1868.95 1242.92 1870.77 1240.2 1873.07 1237.9C1875.38 1235.59 1878.1 1233.8 1881.23 1232.52C1884.37 1231.18 1887.73 1230.5 1891.31 1230.5H1892.95C1896.27 1230.5 1899.35 1230.95 1902.16 1231.85C1905.04 1232.68 1907.51 1233.93 1909.55 1235.59C1911.6 1237.19 1913.2 1239.11 1914.35 1241.35C1915.51 1243.53 1916.08 1245.96 1916.08 1248.65C1916.08 1250.7 1915.7 1252.52 1914.93 1254.12C1914.23 1255.66 1913.07 1256.97 1911.47 1258.06C1909.94 1259.08 1907.99 1259.88 1905.62 1260.46C1903.31 1261.03 1900.59 1261.32 1897.46 1261.32H1882.19C1882.51 1262.73 1883.03 1263.98 1883.73 1265.06C1884.5 1266.15 1885.36 1267.05 1886.32 1267.75C1887.35 1268.46 1888.47 1269 1889.68 1269.38C1890.9 1269.7 1892.18 1269.86 1893.52 1269.86H1894.96C1897.14 1269.86 1899.31 1269.35 1901.49 1268.33C1903.73 1267.3 1905.81 1266.02 1907.73 1264.49L1916.08 1274.28C1914.99 1275.43 1913.62 1276.52 1911.95 1277.54C1910.29 1278.57 1908.47 1279.46 1906.48 1280.23C1904.5 1281 1902.42 1281.61 1900.24 1282.06C1898.13 1282.57 1896.02 1282.82 1893.91 1282.82H1892.08ZM1882 1251.91H1894.77C1896.63 1251.91 1897.97 1251.53 1898.8 1250.76C1899.7 1249.93 1900.15 1248.94 1900.15 1247.78C1900.15 1247.02 1899.99 1246.28 1899.67 1245.58C1899.35 1244.87 1898.87 1244.26 1898.23 1243.75C1897.59 1243.24 1896.75 1242.82 1895.73 1242.5C1894.77 1242.18 1893.65 1242.02 1892.37 1242.02H1892.18C1890.83 1242.02 1889.59 1242.28 1888.43 1242.79C1887.28 1243.3 1886.26 1244.01 1885.36 1244.9C1884.47 1245.74 1883.73 1246.76 1883.15 1247.98C1882.58 1249.19 1882.19 1250.5 1882 1251.91ZM1924.25 1281.58V1231.66H1940.95V1281.58H1924.25ZM1932.7 1226.18C1929.88 1226.18 1927.61 1225.45 1925.88 1223.98C1924.22 1222.5 1923.38 1220.55 1923.38 1218.12C1923.38 1215.62 1924.22 1213.64 1925.88 1212.17C1927.61 1210.63 1929.88 1209.86 1932.7 1209.86C1935.58 1209.86 1937.91 1210.63 1939.7 1212.17C1941.5 1213.64 1942.39 1215.62 1942.39 1218.12C1942.39 1220.55 1941.5 1222.5 1939.7 1223.98C1937.98 1225.45 1935.64 1226.18 1932.7 1226.18ZM1951.72 1281.58V1231.66H1964.97C1965.29 1232.55 1965.58 1233.7 1965.83 1235.11C1966.09 1236.46 1966.28 1237.67 1966.41 1238.76C1968.39 1236.2 1970.73 1234.18 1973.42 1232.71C1976.17 1231.24 1979.18 1230.5 1982.44 1230.5H1982.73C1985.99 1230.5 1988.78 1231.24 1991.08 1232.71C1993.38 1234.12 1995.14 1236.17 1996.36 1238.86C1998.41 1236.3 2000.81 1234.25 2003.56 1232.71C2006.31 1231.18 2009.32 1230.41 2012.58 1230.41H2012.87C2017.86 1230.41 2021.7 1232.07 2024.39 1235.4C2027.14 1238.73 2028.52 1243.43 2028.52 1249.51V1281.58H2011.82V1252.49C2011.82 1250.95 2011.69 1249.64 2011.43 1248.55C2011.24 1247.46 2010.89 1246.6 2010.38 1245.96C2009.93 1245.26 2009.32 1244.78 2008.55 1244.52C2007.85 1244.2 2006.98 1244.04 2005.96 1244.04H2005.86C2004.71 1244.04 2003.69 1244.26 2002.79 1244.71C2001.9 1245.16 2001.13 1245.83 2000.49 1246.73C1999.85 1247.56 1999.34 1248.62 1998.95 1249.9C1998.63 1251.18 1998.47 1252.65 1998.47 1254.31V1281.58H1981.77V1252.58C1981.77 1250.98 1981.64 1249.67 1981.38 1248.65C1981.19 1247.56 1980.84 1246.7 1980.33 1246.06C1979.82 1245.42 1979.18 1244.94 1978.41 1244.62C1977.7 1244.3 1976.87 1244.14 1975.91 1244.14H1975.72C1974.63 1244.14 1973.61 1244.36 1972.65 1244.81C1971.75 1245.26 1970.98 1245.93 1970.34 1246.82C1969.7 1247.66 1969.22 1248.71 1968.9 1249.99C1968.58 1251.21 1968.42 1252.68 1968.42 1254.41V1281.58H1951.72ZM2054.95 1282.73C2051.94 1282.73 2049.25 1282.22 2046.89 1281.19C2044.52 1280.1 2042.5 1278.6 2040.84 1276.68C2039.17 1274.7 2037.89 1272.26 2037 1269.38C2036.17 1266.5 2035.75 1263.24 2035.75 1259.59V1257.48C2035.75 1253.51 2036.39 1249.86 2037.67 1246.54C2038.95 1243.21 2040.74 1240.36 2043.05 1237.99C2045.41 1235.62 2048.23 1233.8 2051.49 1232.52C2054.82 1231.18 2058.47 1230.5 2062.44 1230.5H2063.3C2065.61 1230.5 2067.88 1230.73 2070.12 1231.18C2072.36 1231.62 2074.47 1232.23 2076.45 1233C2078.5 1233.77 2080.36 1234.73 2082.02 1235.88C2083.75 1236.97 2085.22 1238.18 2086.44 1239.53V1281.58H2073.19C2072.87 1280.55 2072.55 1279.27 2072.23 1277.74C2071.91 1276.2 2071.72 1274.86 2071.65 1273.7C2070.89 1275.11 2069.96 1276.39 2068.87 1277.54C2067.85 1278.63 2066.66 1279.56 2065.32 1280.33C2063.97 1281.1 2062.5 1281.67 2060.9 1282.06C2059.37 1282.5 2057.73 1282.73 2056.01 1282.73H2054.95ZM2060.71 1269.96H2061.29C2062.5 1269.96 2063.62 1269.67 2064.65 1269.1C2065.73 1268.52 2066.66 1267.75 2067.43 1266.79C2068.2 1265.83 2068.81 1264.71 2069.25 1263.43C2069.77 1262.15 2070.02 1260.74 2070.02 1259.21V1243.75C2069.38 1243.37 2068.45 1243.05 2067.24 1242.79C2066.02 1242.54 2064.84 1242.41 2063.69 1242.41H2063.59C2062.05 1242.41 2060.61 1242.76 2059.27 1243.46C2057.93 1244.1 2056.77 1245.06 2055.81 1246.34C2054.92 1247.62 2054.18 1249.16 2053.61 1250.95C2053.09 1252.74 2052.84 1254.79 2052.84 1257.1V1258.06C2052.84 1259.91 2053 1261.58 2053.32 1263.05C2053.7 1264.46 2054.21 1265.7 2054.85 1266.79C2055.56 1267.82 2056.39 1268.62 2057.35 1269.19C2058.37 1269.7 2059.49 1269.96 2060.71 1269.96ZM2117.2 1301.26C2113.68 1301.26 2110.48 1300.81 2107.6 1299.91C2104.72 1299.02 2102.26 1297.74 2100.21 1296.07C2098.16 1294.47 2096.56 1292.52 2095.41 1290.22C2094.26 1287.91 2093.68 1285.35 2093.68 1282.54V1281.67C2093.68 1280.14 2093.84 1278.7 2094.16 1277.35C2094.55 1275.94 2095.06 1274.66 2095.7 1273.51C2096.4 1272.3 2097.27 1271.21 2098.29 1270.25C2099.31 1269.22 2100.47 1268.3 2101.75 1267.46C2100.66 1266.57 2099.7 1265.61 2098.87 1264.58C2098.1 1263.5 2097.39 1262.34 2096.75 1261.13C2096.18 1259.85 2095.73 1258.54 2095.41 1257.19C2095.15 1255.78 2095.03 1254.28 2095.03 1252.68V1250.57C2095.03 1247.56 2095.54 1244.84 2096.56 1242.41C2097.59 1239.91 2099.03 1237.77 2100.88 1235.98C2102.74 1234.18 2104.98 1232.84 2107.6 1231.94C2110.29 1230.98 2113.23 1230.5 2116.43 1230.5H2119.31C2120.72 1230.5 2122.07 1230.6 2123.35 1230.79C2124.69 1230.98 2125.97 1231.27 2127.19 1231.66H2146.1V1244.14H2139.76C2140.02 1245.16 2140.21 1246.22 2140.34 1247.3C2140.53 1248.33 2140.63 1249.42 2140.63 1250.57V1252.68C2140.63 1255.56 2140.08 1258.22 2138.99 1260.65C2137.97 1263.08 2136.5 1265.16 2134.58 1266.89C2132.72 1268.55 2130.45 1269.86 2127.76 1270.82C2125.07 1271.72 2122.1 1272.2 2118.83 1272.26C2117.43 1272.26 2116.15 1272.42 2114.99 1272.74C2113.84 1273.06 2112.82 1273.54 2111.92 1274.18C2111.09 1274.82 2110.45 1275.59 2110 1276.49C2109.55 1277.38 2109.33 1278.38 2109.33 1279.46V1280.04C2109.33 1281.26 2109.55 1282.34 2110 1283.3C2110.45 1284.26 2111.06 1285.1 2111.83 1285.8C2112.66 1286.57 2113.62 1287.11 2114.71 1287.43C2115.86 1287.82 2117.11 1288.01 2118.45 1288.01H2119.6C2121.14 1288.01 2122.55 1287.75 2123.83 1287.24C2125.17 1286.79 2126.32 1286.12 2127.28 1285.22C2128.31 1284.33 2129.14 1283.24 2129.78 1281.96C2130.42 1280.74 2130.8 1279.37 2130.93 1277.83L2144.56 1280.62C2144.31 1283.82 2143.54 1286.7 2142.26 1289.26C2141.04 1291.88 2139.38 1294.06 2137.27 1295.78C2135.15 1297.58 2132.63 1298.92 2129.68 1299.82C2126.74 1300.78 2123.47 1301.26 2119.89 1301.26H2117.2ZM2117.49 1260.55H2118.26C2119.35 1260.55 2120.31 1260.36 2121.14 1259.98C2122.03 1259.53 2122.8 1258.95 2123.44 1258.25C2124.08 1257.48 2124.56 1256.58 2124.88 1255.56C2125.27 1254.54 2125.46 1253.42 2125.46 1252.2V1250.47C2125.46 1249.19 2125.27 1248.04 2124.88 1247.02C2124.56 1245.99 2124.08 1245.13 2123.44 1244.42C2122.8 1243.72 2122.03 1243.18 2121.14 1242.79C2120.31 1242.41 2119.35 1242.22 2118.26 1242.22H2117.49C2116.4 1242.22 2115.41 1242.41 2114.51 1242.79C2113.62 1243.18 2112.85 1243.72 2112.21 1244.42C2111.57 1245.13 2111.06 1245.99 2110.67 1247.02C2110.35 1248.04 2110.19 1249.19 2110.19 1250.47V1252.2C2110.19 1253.48 2110.35 1254.63 2110.67 1255.66C2111.06 1256.68 2111.57 1257.54 2112.21 1258.25C2112.85 1258.95 2113.62 1259.53 2114.51 1259.98C2115.41 1260.36 2116.4 1260.55 2117.49 1260.55ZM2153 1281.58V1231.66H2169.7V1281.58H2153ZM2161.45 1226.18C2158.63 1226.18 2156.36 1225.45 2154.63 1223.98C2152.97 1222.5 2152.13 1220.55 2152.13 1218.12C2152.13 1215.62 2152.97 1213.64 2154.63 1212.17C2156.36 1210.63 2158.63 1209.86 2161.45 1209.86C2164.33 1209.86 2166.66 1210.63 2168.45 1212.17C2170.25 1213.64 2171.14 1215.62 2171.14 1218.12C2171.14 1220.55 2170.25 1222.5 2168.45 1223.98C2166.73 1225.45 2164.39 1226.18 2161.45 1226.18ZM2180.47 1281.58V1231.66H2193.72C2194.04 1232.68 2194.36 1233.93 2194.68 1235.4C2195 1236.87 2195.19 1238.15 2195.25 1239.24C2197.43 1236.55 2199.99 1234.44 2202.93 1232.9C2205.94 1231.3 2209.27 1230.5 2212.92 1230.5H2213.3C2218.55 1230.5 2222.65 1232.17 2225.59 1235.5C2228.6 1238.82 2230.1 1243.53 2230.1 1249.61V1281.58H2213.4V1253.35C2213.4 1250.15 2212.82 1247.82 2211.67 1246.34C2210.52 1244.87 2208.76 1244.14 2206.39 1244.14H2206.01C2204.66 1244.14 2203.45 1244.39 2202.36 1244.9C2201.27 1245.42 2200.34 1246.18 2199.57 1247.21C2198.81 1248.17 2198.2 1249.32 2197.75 1250.66C2197.37 1252.01 2197.17 1253.51 2197.17 1255.18V1281.58H2180.47ZM2263.43 1282.82C2259.65 1282.82 2256.13 1282.22 2252.87 1281C2249.67 1279.78 2246.88 1278.09 2244.51 1275.91C2242.21 1273.67 2240.39 1271.05 2239.04 1268.04C2237.7 1265.03 2237.03 1261.74 2237.03 1258.15V1256.23C2237.03 1252.58 2237.67 1249.19 2238.95 1246.06C2240.29 1242.92 2242.11 1240.2 2244.42 1237.9C2246.72 1235.59 2249.44 1233.8 2252.58 1232.52C2255.71 1231.18 2259.07 1230.5 2262.66 1230.5H2264.29C2267.62 1230.5 2270.69 1230.95 2273.51 1231.85C2276.39 1232.68 2278.85 1233.93 2280.9 1235.59C2282.95 1237.19 2284.55 1239.11 2285.7 1241.35C2286.85 1243.53 2287.43 1245.96 2287.43 1248.65C2287.43 1250.7 2287.04 1252.52 2286.27 1254.12C2285.57 1255.66 2284.42 1256.97 2282.82 1258.06C2281.28 1259.08 2279.33 1259.88 2276.96 1260.46C2274.66 1261.03 2271.94 1261.32 2268.8 1261.32H2253.54C2253.86 1262.73 2254.37 1263.98 2255.07 1265.06C2255.84 1266.15 2256.71 1267.05 2257.67 1267.75C2258.69 1268.46 2259.81 1269 2261.03 1269.38C2262.24 1269.7 2263.52 1269.86 2264.87 1269.86H2266.31C2268.48 1269.86 2270.66 1269.35 2272.83 1268.33C2275.07 1267.3 2277.15 1266.02 2279.07 1264.49L2287.43 1274.28C2286.34 1275.43 2284.96 1276.52 2283.3 1277.54C2281.63 1278.57 2279.81 1279.46 2277.83 1280.23C2275.84 1281 2273.76 1281.61 2271.59 1282.06C2269.47 1282.57 2267.36 1282.82 2265.25 1282.82H2263.43ZM2253.35 1251.91H2266.11C2267.97 1251.91 2269.31 1251.53 2270.15 1250.76C2271.04 1249.93 2271.49 1248.94 2271.49 1247.78C2271.49 1247.02 2271.33 1246.28 2271.01 1245.58C2270.69 1244.87 2270.21 1244.26 2269.57 1243.75C2268.93 1243.24 2268.1 1242.82 2267.07 1242.5C2266.11 1242.18 2264.99 1242.02 2263.71 1242.02H2263.52C2262.18 1242.02 2260.93 1242.28 2259.78 1242.79C2258.63 1243.3 2257.6 1244.01 2256.71 1244.9C2255.81 1245.74 2255.07 1246.76 2254.5 1247.98C2253.92 1249.19 2253.54 1250.5 2253.35 1251.91ZM2311.16 1282.73C2308.15 1282.73 2305.47 1282.22 2303.1 1281.19C2300.79 1280.1 2298.81 1278.6 2297.15 1276.68C2295.55 1274.7 2294.33 1272.26 2293.5 1269.38C2292.67 1266.5 2292.25 1263.24 2292.25 1259.59V1257.48C2292.25 1253.51 2292.89 1249.86 2294.17 1246.54C2295.45 1243.21 2297.24 1240.36 2299.55 1237.99C2301.91 1235.62 2304.73 1233.8 2307.99 1232.52C2311.32 1231.18 2314.97 1230.5 2318.94 1230.5H2319.9C2320.99 1230.5 2322.04 1230.57 2323.07 1230.7C2324.09 1230.82 2325.15 1231.02 2326.23 1231.27V1212.46H2342.94V1281.58H2329.69C2329.31 1280.55 2328.95 1279.24 2328.63 1277.64C2328.38 1276.04 2328.22 1274.7 2328.15 1273.61C2327.39 1275.02 2326.43 1276.3 2325.27 1277.45C2324.19 1278.6 2322.97 1279.56 2321.63 1280.33C2320.28 1281.1 2318.81 1281.67 2317.21 1282.06C2315.61 1282.5 2313.91 1282.73 2312.12 1282.73H2311.16ZM2317.21 1269.96H2317.79C2319 1269.96 2320.12 1269.67 2321.15 1269.1C2322.23 1268.52 2323.16 1267.75 2323.93 1266.79C2324.7 1265.83 2325.31 1264.71 2325.75 1263.43C2326.27 1262.15 2326.52 1260.74 2326.52 1259.21V1243.85C2325.88 1243.4 2324.95 1243.05 2323.74 1242.79C2322.52 1242.54 2321.34 1242.41 2320.19 1242.41H2320.09C2318.55 1242.41 2317.11 1242.76 2315.77 1243.46C2314.43 1244.1 2313.27 1245.06 2312.31 1246.34C2311.42 1247.62 2310.68 1249.16 2310.11 1250.95C2309.59 1252.74 2309.34 1254.79 2309.34 1257.1V1258.06C2309.34 1259.91 2309.5 1261.58 2309.82 1263.05C2310.2 1264.46 2310.71 1265.7 2311.35 1266.79C2312.06 1267.82 2312.89 1268.62 2313.85 1269.19C2314.87 1269.7 2315.99 1269.96 2317.21 1269.96ZM2354.87 1257.77L2352.86 1235.69V1214.38H2370.9V1235.69L2368.79 1257.77H2354.87ZM2361.78 1283.02C2360.44 1283.02 2359.16 1282.76 2357.94 1282.25C2356.73 1281.8 2355.67 1281.16 2354.78 1280.33C2353.88 1279.5 2353.18 1278.54 2352.66 1277.45C2352.15 1276.3 2351.9 1275.08 2351.9 1273.8V1273.13C2351.9 1271.91 2352.15 1270.76 2352.66 1269.67C2353.18 1268.52 2353.88 1267.56 2354.78 1266.79C2355.67 1265.96 2356.73 1265.32 2357.94 1264.87C2359.16 1264.36 2360.44 1264.1 2361.78 1264.1C2363.19 1264.1 2364.5 1264.36 2365.72 1264.87C2366.94 1265.32 2367.99 1265.96 2368.89 1266.79C2369.85 1267.56 2370.58 1268.52 2371.1 1269.67C2371.67 1270.76 2371.96 1271.91 2371.96 1273.13V1273.8C2371.96 1275.08 2371.67 1276.3 2371.1 1277.45C2370.58 1278.54 2369.85 1279.5 2368.89 1280.33C2367.99 1281.16 2366.94 1281.8 2365.72 1282.25C2364.5 1282.76 2363.19 1283.02 2361.78 1283.02Z" fill="white" style="fill:white;fill-opacity:1;"/>
</g>
<defs>
<clipPath id="clip0_2069_78">
<rect width="3840" height="2160" fill="white" style="fill:white;fill-opacity:1;"/>
</clipPath>
</defs>
</svg>
